<svg width="170" height="33" viewBox="0 0 170 33" fill="none" xmlns="http://www.w3.org/2000/svg">
<path d="M18.2496 3.83984L8 23.9586H12.7613L23.0147 3.83984H18.2496Z" fill="#F16079"/>
<path d="M77.2389 11.8922L76.4215 13.5006H76.3725C75.9695 12.8037 75.4685 12.3065 74.8695 12.0089C74.2706 11.7151 73.5737 11.5645 72.7827 11.5645C71.9427 11.5645 71.2006 11.7264 70.5527 12.0541C69.9048 12.3819 69.3662 12.8226 68.9292 13.3725C68.496 13.9263 68.1645 14.5629 67.9385 15.2861C67.7125 16.0093 67.5995 16.7589 67.5995 17.5387C67.5995 18.3636 67.6975 19.1434 67.8896 19.8854C68.0854 20.6237 68.3906 21.2716 68.8124 21.8216C69.2306 22.3753 69.7692 22.8085 70.4209 23.1287C71.0726 23.4489 71.8523 23.6071 72.7563 23.6071C73.4871 23.6071 74.184 23.4564 74.8432 23.1513C75.5061 22.8462 76.0147 22.3791 76.3725 21.7387H76.4177V23.3246C76.4177 25.1967 75.5325 26.2891 73.7885 26.2891C72.0444 26.2891 71.0989 25.5244 70.6017 24.9179L69.3925 27.2873C69.3925 27.2873 70.7448 28.5078 73.3138 28.5078C77.5741 28.5078 79.5668 26.4511 79.5668 23.189V11.8959H77.2351L77.2389 11.8922ZM76.2444 19.0228C76.1277 19.4183 75.9544 19.7724 75.7209 20.0851C75.4873 20.3977 75.1935 20.6463 74.8356 20.8309C74.4778 21.0193 74.0672 21.1097 73.6001 21.1097C73.0878 21.1097 72.6584 21.0004 72.3156 20.7819C71.9728 20.5635 71.6979 20.2847 71.4869 19.9419C71.276 19.5992 71.1291 19.2149 71.0424 18.7855C70.9558 18.3561 70.9144 17.9267 70.9144 17.4897C70.9144 17.0528 70.9633 16.6083 71.065 16.1939C71.1667 15.7833 71.3287 15.4179 71.5547 15.0978C71.7807 14.7776 72.0595 14.5252 72.3947 14.3406C72.73 14.1523 73.1293 14.0619 73.5963 14.0619C74.1388 14.0619 74.5908 14.1636 74.9486 14.367C75.3065 14.5704 75.5928 14.8416 75.8113 15.1844C76.0297 15.5272 76.1842 15.9189 76.2783 16.3634C76.3725 16.8079 76.4177 17.2788 76.4177 17.776C76.4177 18.2129 76.3612 18.6273 76.2444 19.0228Z" fill="white"/>
<path d="M33.0648 7.29688V13.5725H33.1364C33.5545 12.8718 34.0932 12.3633 34.7448 12.0431C35.3965 11.7229 36.0368 11.5647 36.6584 11.5647C37.5436 11.5647 38.2706 11.6853 38.8394 11.9263C39.4082 12.1674 39.8527 12.5027 40.1804 12.9283C40.5081 13.354 40.7341 13.8776 40.8697 14.4916C41.0016 15.1056 41.0694 15.7874 41.0694 16.5332V23.9539H37.7545V17.1397C37.7545 16.1452 37.6001 15.4031 37.2874 14.9097C36.9748 14.42 36.4248 14.1751 35.63 14.1751C34.726 14.1751 34.0743 14.4426 33.6713 14.9813C33.2682 15.5199 33.0648 16.4014 33.0648 17.6294V23.9539H29.75V7.29688H33.0648Z" fill="white"/>
<path d="M42.4558 15.3125C42.7496 14.529 43.1715 13.8585 43.7139 13.3047C44.2563 12.751 44.9118 12.3254 45.6727 12.0202C46.4336 11.7189 47.2887 11.5645 48.2379 11.5645C49.1871 11.5645 50.046 11.7151 50.8182 12.0202C51.5866 12.3254 52.2458 12.751 52.7883 13.3047C53.3307 13.8585 53.7526 14.5252 54.0464 15.3125C54.3402 16.0997 54.4909 16.9737 54.4909 17.938C54.4909 18.9023 54.344 19.7724 54.0464 20.5522C53.7488 21.3281 53.3307 21.9949 52.7883 22.5486C52.2421 23.1023 51.5866 23.5242 50.8182 23.818C50.0498 24.1118 49.1909 24.2625 48.2379 24.2625C47.2849 24.2625 46.4336 24.1156 45.6727 23.818C44.9118 23.5204 44.2563 23.0986 43.7139 22.5486C43.1677 21.9986 42.7496 21.3319 42.4558 20.5522C42.1582 19.7762 42.0113 18.9023 42.0113 17.938C42.0113 16.9737 42.1582 16.0997 42.4558 15.3125ZM45.4655 19.3468C45.5597 19.8063 45.7179 20.2169 45.9439 20.5823C46.1699 20.9477 46.4675 21.2377 46.8404 21.4562C47.2133 21.6747 47.6804 21.7839 48.2417 21.7839C48.8029 21.7839 49.2738 21.6747 49.6542 21.4562C50.0347 21.2377 50.3398 20.9477 50.5658 20.5823C50.7918 20.2169 50.95 19.8026 51.0442 19.3468C51.1384 18.8872 51.1836 18.4164 51.1836 17.9342C51.1836 17.452 51.1384 16.9774 51.0442 16.5103C50.95 16.0432 50.7918 15.6327 50.5658 15.2748C50.3398 14.917 50.0385 14.6269 49.6542 14.4009C49.2738 14.1749 48.8029 14.0619 48.2417 14.0619C47.6804 14.0619 47.2171 14.1749 46.8404 14.4009C46.4675 14.6269 46.1661 14.917 45.9439 15.2748C45.7179 15.6327 45.5597 16.0432 45.4655 16.5103C45.3713 16.9774 45.3261 17.452 45.3261 17.9342C45.3261 18.4164 45.3751 18.8872 45.4655 19.3468Z" fill="white"/>
<path d="M63.5352 23.9579V22.2779H63.4637C63.0455 22.9786 62.4993 23.4833 61.8288 23.796C61.1583 24.1049 60.4765 24.2631 59.7759 24.2631C58.8907 24.2631 58.1637 24.1463 57.5949 23.9127C57.0261 23.6792 56.5816 23.3477 56.2539 22.9221C55.9262 22.4964 55.6964 21.9728 55.5646 21.3588C55.4327 20.7448 55.3649 20.063 55.3649 19.3172V11.8965H58.6798V18.7107C58.6798 19.7052 58.8342 20.4472 59.1469 20.9407C59.4557 21.4304 60.0095 21.6752 60.8043 21.6752C61.7045 21.6752 62.36 21.4078 62.763 20.8691C63.1661 20.3342 63.3695 19.449 63.3695 18.221V11.8965H66.6843V23.9579H63.5352Z" fill="white"/>
<path d="M84.121 7.29688V13.5725H84.1926C84.6107 12.8718 85.1494 12.3633 85.8011 12.0431C86.4527 11.7229 87.0931 11.5647 87.7146 11.5647C88.5998 11.5647 89.3268 11.6853 89.8956 11.9263C90.4644 12.1674 90.9089 12.5027 91.2366 12.9283C91.5643 13.354 91.7904 13.8776 91.926 14.4916C92.0578 15.1056 92.1256 15.7874 92.1256 16.5332V23.9539H88.8108V17.1397C88.8108 16.1452 88.6563 15.4031 88.3437 14.9097C88.031 14.42 87.4811 14.1751 86.6863 14.1751C85.7822 14.1751 85.1306 14.4426 84.7275 14.9813C84.3245 15.5199 84.121 16.4014 84.121 17.6294V23.9539H80.8062V7.29688H84.121Z" fill="white"/>
<path d="M117.412 15.3125C117.706 14.529 118.128 13.8585 118.67 13.3047C119.213 12.751 119.868 12.3254 120.629 12.0202C121.39 11.7189 122.245 11.5645 123.194 11.5645C124.144 11.5645 125.003 11.7151 125.775 12.0202C126.543 12.3254 127.202 12.751 127.745 13.3047C128.291 13.8585 128.709 14.5252 129.003 15.3125C129.297 16.0997 129.447 16.9737 129.447 17.938C129.447 18.9023 129.301 19.7724 129.003 20.5522C128.705 21.3319 128.287 21.9949 127.745 22.5486C127.202 23.1023 126.543 23.5242 125.775 23.818C125.006 24.1118 124.144 24.2625 123.194 24.2625C122.245 24.2625 121.39 24.1156 120.629 23.818C119.868 23.5242 119.213 23.0986 118.67 22.5486C118.124 21.9986 117.706 21.3319 117.412 20.5522C117.119 19.7724 116.968 18.9023 116.968 17.938C116.968 16.9737 117.115 16.0997 117.412 15.3125ZM120.422 19.3468C120.516 19.8063 120.674 20.2169 120.9 20.5823C121.126 20.9477 121.424 21.2377 121.797 21.4562C122.17 21.6747 122.637 21.7839 123.198 21.7839C123.759 21.7839 124.227 21.6747 124.611 21.4562C124.991 21.2377 125.296 20.9477 125.519 20.5823C125.745 20.2169 125.903 19.8026 125.997 19.3468C126.091 18.8872 126.136 18.4164 126.136 17.9342C126.136 17.452 126.087 16.9774 125.997 16.5103C125.903 16.0432 125.745 15.6327 125.519 15.2748C125.293 14.917 124.991 14.6269 124.611 14.4009C124.23 14.1749 123.759 14.0619 123.198 14.0619C122.637 14.0619 122.174 14.1749 121.797 14.4009C121.424 14.6269 121.126 14.917 120.9 15.2748C120.674 15.6327 120.516 16.0432 120.422 16.5103C120.328 16.9774 120.283 17.452 120.283 17.9342C120.283 18.4164 120.328 18.8872 120.422 19.3468Z" fill="white"/>
<path d="M143.128 7.29688V16.2319L147.306 11.8924H151.227L146.677 16.326L151.739 23.9577H147.728L144.413 18.5673L143.128 19.8028V23.9577H139.813V7.29688H143.128Z" fill="white"/>
<path d="M154.188 20.9593C154.335 21.2154 154.527 21.4264 154.76 21.5883C154.994 21.7503 155.261 21.8708 155.567 21.9499C155.872 22.0291 156.184 22.0667 156.512 22.0667C156.746 22.0667 156.99 22.0404 157.247 21.9838C157.503 21.9311 157.736 21.8445 157.947 21.7277C158.158 21.6109 158.331 21.4565 158.471 21.2606C158.61 21.0685 158.682 20.8237 158.682 20.5261C158.682 20.0289 158.35 19.6559 157.691 19.4073C157.028 19.1587 156.109 18.9101 154.926 18.6615C154.444 18.5522 153.973 18.4242 153.514 18.2773C153.054 18.1304 152.647 17.9345 152.289 17.6934C151.932 17.4523 151.645 17.151 151.427 16.7856C151.208 16.4202 151.099 15.972 151.099 15.4446C151.099 14.6649 151.25 14.0283 151.555 13.531C151.86 13.0338 152.259 12.6421 152.756 12.352C153.254 12.0657 153.815 11.8623 154.437 11.7455C155.058 11.6288 155.695 11.5723 156.35 11.5723C157.005 11.5723 157.638 11.6363 158.252 11.7606C158.866 11.8849 159.416 12.0959 159.898 12.3897C160.381 12.6835 160.78 13.079 161.1 13.5687C161.416 14.0584 161.609 14.6762 161.673 15.422H158.524C158.478 14.7854 158.237 14.3522 157.8 14.1262C157.363 13.9002 156.851 13.7872 156.26 13.7872C156.075 13.7872 155.872 13.7985 155.653 13.8211C155.435 13.8437 155.239 13.8964 155.058 13.9718C154.881 14.0509 154.727 14.1639 154.602 14.3108C154.478 14.4577 154.418 14.6573 154.418 14.9059C154.418 15.2035 154.527 15.4446 154.745 15.6292C154.964 15.8175 155.246 15.9682 155.597 16.085C155.947 16.2017 156.346 16.3072 156.798 16.4014C157.25 16.4955 157.71 16.5972 158.173 16.7065C158.655 16.8157 159.126 16.9476 159.586 17.102C160.045 17.2564 160.452 17.4636 160.81 17.7198C161.168 17.9759 161.454 18.2961 161.673 18.6766C161.891 19.057 162 19.5279 162 20.0891C162 20.8839 161.842 21.5469 161.522 22.0856C161.202 22.6242 160.787 23.0536 160.275 23.3814C159.763 23.7091 159.175 23.9388 158.512 24.0707C157.849 24.2025 157.179 24.2703 156.493 24.2703C155.808 24.2703 155.107 24.2025 154.44 24.0594C153.774 23.92 153.178 23.6865 152.655 23.3588C152.135 23.031 151.706 22.6016 151.37 22.063C151.035 21.5281 150.854 20.8538 150.824 20.0439H153.973C153.973 20.4018 154.045 20.7069 154.195 20.9668L154.188 20.9593Z" fill="white"/>
<path d="M99.1319 21.482C98.5706 21.482 98.1977 21.3878 98.0132 21.2032C97.8286 21.0149 97.7344 20.642 97.7344 20.0845V14.1102H99.5839L100.714 11.8916H97.7382V8.27539H94.4233V11.8916H92.7622L91.6359 14.1027H94.4233V21.2221C94.4233 21.8285 94.525 22.3182 94.7247 22.6911C94.9281 23.0641 95.2031 23.3503 95.5534 23.5538C95.9037 23.7572 96.3068 23.8928 96.7663 23.9606C97.2259 24.0321 97.7118 24.066 98.2241 24.066C98.5518 24.066 98.8833 24.0585 99.2261 24.0434C99.5689 24.0284 99.8815 23.9982 100.16 23.9493V21.3803C100.006 21.4104 99.8401 21.4368 99.6706 21.4518C99.5011 21.4669 99.3202 21.4744 99.1357 21.4744L99.1319 21.482Z" fill="white"/>
<path d="M27.6893 21.482C27.128 21.482 26.7551 21.3878 26.5705 21.2032C26.3859 21.0149 26.2918 20.642 26.2918 20.0845V14.1102H27.9982L29.1282 11.8916H26.2955V8.27539H22.9807V11.8916H21.3195L20.1932 14.1027H22.9807V21.2221C22.9807 21.8285 23.0824 22.3182 23.2821 22.6911C23.4855 23.0641 23.7604 23.3503 24.1108 23.5538C24.4611 23.7572 24.8641 23.8928 25.3237 23.9606C25.7832 24.0321 26.2692 24.066 26.7815 24.066C27.1092 24.066 27.4407 24.0585 27.7834 24.0434C28.1262 24.0284 28.4389 23.9982 28.7176 23.9493V21.3803C28.5632 21.4104 28.3974 21.4368 28.2279 21.4518C28.0584 21.4669 27.8776 21.4744 27.693 21.4744L27.6893 21.482Z" fill="white"/>
<path d="M137.229 11.5682C134.442 11.5682 133.38 14.1334 133.38 14.1334H133.334V11.8922H130.185V23.9536H133.5V18.8948C133.5 15.9566 134.073 14.6457 136.574 14.6457C137.09 14.6457 137.516 14.7625 137.87 14.9546L139.29 12.1671C138.747 11.8168 138.069 11.5645 137.229 11.5645V11.5682Z" fill="white"/>
<path d="M114.188 11.8926L111.97 20.0591H111.924L109.871 11.8926H106.651L104.643 20.0855H104.598L102.383 11.8926L100.224 16.1265L102.711 23.9578H106.138L108.191 15.8591H108.237L110.384 23.9578H113.793L117.593 11.8926H114.188Z" fill="white"/>
</svg>
